# Blender v2.93.4 OBJ File: 'crown.blend'
# www.blender.org
o Cube_Cube.001
v 0.401686 -0.004857 0.928914
v 0.545728 1.777212 1.317505
v 0.840272 0.695464 0.552444
v 0.203525 0.695464 0.984799
v 0.564899 0.695464 0.831950
v -0.850067 -0.004857 0.549198
v -1.008374 1.777212 1.008374
v -0.498677 0.060524 0.844034
v -0.114566 0.057148 0.978727
v -0.000000 1.777212 1.426057
v -0.840272 0.695464 0.552444
v -0.980785 0.703029 0.195090
v -0.196863 0.694182 0.989698
v -0.564899 0.695464 0.831950
v 0.998807 0.003991 -0.088905
v 1.426057 1.777212 -0.000000
v 0.893837 0.000357 -0.457797
v 0.582923 0.001273 -0.827103
v 1.008374 1.777212 -1.008374
v 0.545728 1.777212 -1.317505
v 0.098612 0.000373 -1.001218
v 0.840272 0.695464 -0.552444
v 0.980785 0.703029 -0.195090
v 0.991916 0.703256 0.186584
v 0.196863 0.694182 -0.989698
v 0.564899 0.695464 -0.831950
v -0.996960 0.003991 0.107661
v -0.777702 0.000637 -0.635939
v -0.401686 -0.004857 -0.928914
v -0.545728 1.777212 -1.317505
v -0.840272 0.695464 -0.552444
v -0.991916 0.703256 -0.186584
v -0.203525 0.695464 -0.984799
v -0.564899 0.695464 -0.831950
v 0.933052 0.071533 0.273480
v 1.317505 1.777211 0.545728
v 0.757371 0.071533 0.609726
v 1.008374 1.777211 1.008374
v 0.457615 0.141358 0.821165
v 0.092309 0.141374 0.937226
v 0.784865 0.791680 0.520025
v 0.184264 0.790469 0.926359
v 0.526115 0.791680 0.780795
v -0.879500 0.148562 0.351930
v -1.317505 1.777212 0.545728
v -0.545728 1.777212 1.317505
v -0.784865 0.791680 0.520025
v -0.918099 0.799119 0.182621
v -0.187270 0.791680 0.922696
v -0.526115 0.791680 0.780795
v 0.924084 0.148034 -0.196246
v 1.317505 1.777212 -0.545728
v 0.727996 0.141620 -0.595293
v 0.376013 0.136478 -0.869543
v 0.784865 0.791680 -0.520025
v 0.918099 0.799119 -0.182621
v 0.927758 0.797822 0.179225
v 0.187270 0.791680 -0.922696
v 0.526115 0.791680 -0.780795
v -0.946263 0.064461 -0.255737
v -1.426057 1.777212 -0.000000
v -0.795735 0.136478 -0.514097
v -1.317505 1.777211 -0.545728
v -1.008374 1.777211 -1.008374
v -0.457615 0.141358 -0.821165
v -0.092309 0.141374 -0.937226
v 0.000000 1.777212 -1.426057
v -0.784865 0.791680 -0.520025
v -0.927758 0.797822 -0.179225
v -0.184264 0.790469 -0.926359
v -0.526115 0.791680 -0.780795
vn 0.8586 -0.3766 0.3478
vn 0.6599 -0.3766 0.6502
vn 0.3609 -0.3766 0.8532
vn 0.0125 -0.3756 0.9267
vn 0.0895 -0.0540 0.9945
vn 0.9796 -0.0652 0.1899
vn 0.8838 -0.0750 0.4618
vn 0.6734 -0.0549 0.7373
vn -0.9252 -0.3786 0.0268
vn -0.8639 -0.3791 0.3317
vn -0.6599 -0.3766 0.6502
vn -0.3662 -0.3756 0.8513
vn -0.3308 -0.0590 0.9419
vn -0.9488 -0.0175 0.3153
vn -0.6362 -0.0517 0.7698
vn 0.9252 -0.3786 -0.0268
vn 0.8639 -0.3791 -0.3317
vn 0.6599 -0.3766 -0.6502
vn 0.3662 -0.3756 -0.8513
vn 0.3382 -0.0323 -0.9405
vn 0.9617 -0.0168 -0.2735
vn 0.7646 -0.0287 -0.6438
vn -0.8586 -0.3766 -0.3478
vn -0.6599 -0.3766 -0.6502
vn -0.3609 -0.3766 -0.8532
vn -0.0125 -0.3756 -0.9267
vn -0.1425 -0.0386 -0.9890
vn -0.9876 -0.0547 -0.1469
vn -0.9158 -0.0344 -0.4002
vn -0.6146 -0.0341 -0.7881
vn -0.8244 0.4544 -0.3375
vn -0.6324 0.4543 -0.6275
vn -0.3506 0.4533 -0.8195
vn -0.3027 0.0269 -0.9527
vn -0.9998 -0.0049 0.0183
vn -0.8861 -0.0238 -0.4629
vn -0.5749 0.0098 -0.8182
vn 0.8891 0.4570 -0.0254
vn 0.8306 0.4572 -0.3179
vn 0.6324 0.4543 -0.6275
vn 0.3441 0.4543 -0.8217
vn 0.0103 0.4533 -0.8913
vn -0.1602 -0.0908 -0.9829
vn 0.9941 -0.0139 -0.1073
vn 0.7938 0.0418 -0.6068
vn 0.3296 -0.0691 -0.9416
vn -0.8891 0.4570 0.0254
vn -0.8306 0.4572 0.3179
vn -0.6324 0.4543 0.6275
vn -0.3441 0.4543 0.8217
vn -0.0103 0.4533 0.8913
vn -0.1425 0.0392 0.9890
vn -0.8973 0.0275 0.4405
vn -0.6146 0.0340 0.7881
vn 0.8244 0.4544 0.3375
vn 0.6324 0.4543 0.6275
vn 0.3506 0.4533 0.8195
vn 0.3027 0.0269 0.9527
vn 0.8704 -0.0728 0.4869
vn 0.6719 0.0248 0.7402
vn 0.0479 0.1592 -0.9861
vn 0.9159 0.1778 -0.3600
vn 0.9860 0.1488 -0.0754
vn -0.9061 0.1754 -0.3849
vn 0.6432 0.1409 0.7527
vn -0.4216 0.1592 -0.8927
vn -0.3062 0.1409 0.9415
vn 0.1412 -0.2442 0.9594
vn -0.9159 0.1778 0.3600
vn 0.0874 0.1361 0.9868
vn 0.3062 0.1409 -0.9415
vn -0.9224 -0.2808 0.2652
vn -0.7084 0.1778 -0.6830
vn 0.9816 0.1904 -0.0140
vn -0.8648 0.1239 0.4865
vn -0.0874 0.1361 -0.9868
vn -0.9816 0.1904 0.0140
vn -0.7385 -0.2625 0.6211
vn 0.8648 0.1239 -0.4865
vn 0.4216 0.1592 0.8927
vn -0.6432 0.1409 -0.7527
vn -0.9159 0.1778 -0.3600
vn 0.3062 0.1409 0.9415
vn 0.7084 0.1778 0.6830
vn -0.0479 0.1592 0.9861
vn 0.3803 0.1876 -0.9056
vn 0.8629 -0.2691 0.4277
vn -0.3299 -0.2165 0.9188
vn -0.9860 0.1488 0.0754
vn -0.6432 0.1409 0.7527
vn -0.5949 -0.3168 -0.7387
vn 0.9061 0.1754 0.3849
vn 0.6432 0.1409 -0.7527
vn -0.3803 0.1876 0.9056
vn 0.9159 0.1778 0.3600
vn 0.7084 0.1778 -0.6830
vn 0.5772 -0.3297 0.7470
vn -0.3062 0.1409 -0.9415
vn 0.9235 -0.2236 -0.3117
vn -0.1171 -0.1924 -0.9743
vn -0.7084 0.1778 0.6830
vn 0.0123 -0.0156 0.9998
vn 0.9235 -0.0335 0.3821
vn 0.7120 -0.0302 0.7015
vn 0.3893 0.0367 0.9204
vn -0.9994 0.0195 0.0292
vn -0.9305 0.0113 0.3661
vn -0.7123 0.0067 0.7018
vn -0.3939 -0.0236 0.9188
vn 0.9993 0.0213 -0.0292
vn 0.9303 0.0218 -0.3662
vn 0.7123 0.0136 -0.7018
vn 0.3939 0.0038 -0.9191
vn -0.0122 0.0183 -0.9998
vn -0.9237 -0.0246 -0.3823
vn -0.7122 0.0202 -0.7017
vn -0.3893 0.0367 -0.9204
vn -0.9204 -0.0569 -0.3869
vn -0.7086 -0.0605 -0.7031
vn -0.3917 -0.0159 -0.9200
vn 0.0098 -0.0181 -0.9998
vn 0.9983 0.0522 -0.0268
vn 0.9290 -0.0406 -0.3678
vn 0.7094 -0.0343 -0.7039
vn 0.3861 -0.0321 -0.9219
vn -0.0098 -0.0181 0.9998
vn -0.9996 -0.0097 0.0266
vn -0.9299 -0.0162 0.3675
vn -0.7097 -0.0195 0.7042
vn -0.3860 -0.0364 0.9218
vn 0.9221 -0.0118 0.3868
vn 0.7098 -0.0054 0.7043
vn 0.3917 -0.0159 0.9200
vn 0.5763 -0.6012 -0.5535
vn 0.2612 -0.5059 0.8221
vn -0.7621 -0.5221 0.3829
vn -0.8654 -0.4969 -0.0644
vn -0.5026 -0.5634 0.6557
vn -0.1254 -0.5458 0.8285
vn 0.7740 -0.6332 0.0026
vn 0.5879 -0.4955 0.6394
vn -0.2612 -0.5059 -0.8221
s off
f 24//1 36//1 3//1
f 3//2 38//2 5//2
f 5//3 2//3 4//3
f 4//4 10//4 13//4
f 4//5 9//5 1//5
f 24//6 35//6 15//6
f 3//7 37//7 35//7
f 5//8 1//8 37//8
f 32//9 12//9 61//9
f 12//10 11//10 45//10
f 11//11 14//11 7//11
f 14//12 13//12 46//12
f 9//13 13//13 8//13
f 6//14 12//14 27//14
f 8//15 14//15 6//15
f 24//16 23//16 16//16
f 23//17 22//17 52//17
f 22//18 26//18 19//18
f 26//19 25//19 20//19
f 21//20 25//20 18//20
f 17//21 23//21 15//21
f 18//22 22//22 17//22
f 32//23 63//23 31//23
f 31//24 64//24 34//24
f 34//25 30//25 33//25
f 33//26 67//26 25//26
f 33//27 21//27 29//27
f 32//28 60//28 27//28
f 31//29 28//29 60//29
f 34//30 29//30 28//30
f 57//31 41//31 36//31
f 41//32 43//32 38//32
f 43//33 42//33 2//33
f 40//34 42//34 39//34
f 35//35 57//35 51//35
f 37//36 41//36 35//36
f 39//37 43//37 37//37
f 69//38 61//38 48//38
f 48//39 45//39 47//39
f 47//40 7//40 50//40
f 50//41 46//41 49//41
f 49//42 10//42 42//42
f 49//43 40//43 9//43
f 69//44 44//44 60//44
f 47//45 8//45 44//45
f 50//46 9//46 8//46
f 57//47 16//47 56//47
f 56//48 52//48 55//48
f 55//49 19//49 59//49
f 59//50 20//50 58//50
f 58//51 67//51 70//51
f 58//52 66//52 54//52
f 55//53 53//53 51//53
f 59//54 54//54 53//54
f 69//55 68//55 63//55
f 68//56 71//56 64//56
f 71//57 70//57 30//57
f 66//58 70//58 65//58
f 62//59 69//59 60//59
f 65//60 71//60 62//60
f 56//61 16//61 23//61
f 43//62 2//62 5//62
f 67//63 58//63 25//63
f 58//64 20//64 25//64
f 50//65 7//65 14//65
f 45//66 48//66 12//66
f 36//67 41//67 3//67
f 21//68 66//68 29//68
f 71//69 30//69 34//69
f 16//70 57//70 24//70
f 63//71 68//71 31//71
f 51//72 17//72 15//72
f 7//73 47//73 11//73
f 42//74 10//74 4//74
f 2//75 42//75 4//75
f 61//76 69//76 32//76
f 70//77 67//77 33//77
f 53//78 18//78 17//78
f 30//79 70//79 33//79
f 52//80 56//80 23//80
f 59//81 19//81 26//81
f 46//82 50//82 14//82
f 47//83 45//83 11//83
f 19//84 55//84 22//84
f 48//85 61//85 12//85
f 57//86 36//86 24//86
f 62//87 60//87 28//87
f 54//88 21//88 18//88
f 10//89 49//89 13//89
f 38//90 43//90 5//90
f 39//91 37//91 1//91
f 49//92 46//92 13//92
f 64//93 71//93 34//93
f 69//94 63//94 32//94
f 20//95 59//95 26//95
f 41//96 38//96 3//96
f 65//97 28//97 29//97
f 55//98 52//98 22//98
f 27//99 44//99 6//99
f 9//100 40//100 1//100
f 68//101 64//101 31//101
f 4//102 13//102 9//102
f 24//103 3//103 35//103
f 3//104 5//104 37//104
f 5//105 4//105 1//105
f 27//106 12//106 32//106
f 6//107 11//107 12//107
f 6//108 14//108 11//108
f 8//109 13//109 14//109
f 15//110 23//110 24//110
f 17//111 22//111 23//111
f 18//112 26//112 22//112
f 18//113 25//113 26//113
f 33//114 25//114 21//114
f 32//115 31//115 60//115
f 31//116 34//116 28//116
f 34//117 33//117 29//117
f 35//118 41//118 57//118
f 37//119 43//119 41//119
f 39//120 42//120 43//120
f 49//121 42//121 40//121
f 69//122 48//122 44//122
f 48//123 47//123 44//123
f 47//124 50//124 8//124
f 50//125 49//125 9//125
f 58//126 70//126 66//126
f 57//127 56//127 51//127
f 56//128 55//128 51//128
f 55//129 59//129 53//129
f 59//130 58//130 54//130
f 62//131 68//131 69//131
f 62//132 71//132 68//132
f 65//133 70//133 71//133
f 44//134 8//134 6//134
f 66//135 65//135 29//135
f 51//136 53//136 17//136
f 35//137 51//137 15//137
f 53//138 54//138 18//138
f 21//139 54//139 66//139
f 27//140 60//140 44//140
f 65//141 62//141 28//141
f 40//142 39//142 1//142
